<svg xmlns="http://www.w3.org/2000/svg" xmlns:xlink="http://www.w3.org/1999/xlink" viewBox="0 0 125 37.57"><defs><style>.cls-1{fill:url(#linear-gradient);}.cls-2{fill:#fff;}</style><linearGradient id="linear-gradient" y1="19.89" x2="38.05" y2="19.89" gradientUnits="userSpaceOnUse"><stop offset="0" stop-color="#f5a535"/><stop offset="1" stop-color="#f5e000"/></linearGradient></defs><title>logo</title><g id="Warstwa_2" data-name="Warstwa 2"><g id="ART"><path class="cls-1" d="M23.93,29.65c.28.56-.31.51-1,.9-1,.56-2.19,1.74-1.58,4.47a4,4,0,0,0,.77,1.61,12.65,12.65,0,0,1,2.31-1.82c2.33-1.39,4.17-1.22,4.57-.5.19.34-.19.19-.57.4a1.49,1.49,0,0,0-.72,1.84,1.79,1.79,0,0,0,.82,1c.16-.06.31-.09.47-.15A19,19,0,1,0,6.77,35.77a31.92,31.92,0,0,1,6.15-4.91C18.54,27.51,23,27.87,23.93,29.65Z"/><path class="cls-2" d="M121.9,16.89a3.1,3.1,0,1,1,3.1-3.1A3.1,3.1,0,0,1,121.9,16.89Zm0-5.75a2.65,2.65,0,1,0,2.61,2.65A2.63,2.63,0,0,0,121.9,11.14Zm.75,4.34-.78-1.39h-.51v1.39h-.47v-3.4H122a1,1,0,0,1,1.07,1,.94.94,0,0,1-.73.93l.81,1.45Zm-.66-3h-.63V13.7H122a.6.6,0,0,0,.64-.59A.6.6,0,0,0,122,12.51Z"/><path class="cls-2" d="M8.21,16.52V.2h8a5.12,5.12,0,0,1,3.66,1.19,4.28,4.28,0,0,1,1.25,3.26,3.25,3.25,0,0,1-.57,1.88A3.12,3.12,0,0,1,19.18,7.7a4.78,4.78,0,0,1,1,.5,3,3,0,0,1,.79.79,4,4,0,0,1,.53,1.13,5.32,5.32,0,0,1,.2,1.54,4.48,4.48,0,0,1-1.5,3.55,6.82,6.82,0,0,1-4.6,1.32ZM11.51,3V6.56h4.3q2.07,0,2.07-1.77a1.62,1.62,0,0,0-.53-1.35A2.82,2.82,0,0,0,15.61,3Zm4.33,10.72a2.49,2.49,0,0,0,1.84-.66,2.26,2.26,0,0,0,.66-1.67,1.85,1.85,0,0,0-.65-1.57,2.94,2.94,0,0,0-1.81-.49H11.51v4.4Z"/><path class="cls-2" d="M29.87,16.52a4.93,4.93,0,0,1-.19-1.08,4,4,0,0,1-1.5,1,5.7,5.7,0,0,1-2.16.38A4.33,4.33,0,0,1,23,15.92a3.16,3.16,0,0,1-1-2.4,4.39,4.39,0,0,1,.42-2.08,3.12,3.12,0,0,1,1.16-1.22,5.57,5.57,0,0,1,1.76-.65q1-.21,2.23-.38a4.3,4.3,0,0,0,1.62-.45,1,1,0,0,0,.42-.92A1,1,0,0,0,29,6.9a2.87,2.87,0,0,0-1.49-.33A2.15,2.15,0,0,0,26,7.06a2.3,2.3,0,0,0-.6,1.3h-3a5.5,5.5,0,0,1,.31-1.72,3.31,3.31,0,0,1,.91-1.35,4.28,4.28,0,0,1,1.63-.87,8.51,8.51,0,0,1,2.45-.31,8,8,0,0,1,2.41.32,3.88,3.88,0,0,1,1.59.92,3.51,3.51,0,0,1,.87,1.5,7.06,7.06,0,0,1,.27,2v7.65Zm-.22-5.93a1.72,1.72,0,0,1-.71.39,12.81,12.81,0,0,1-1.35.32,4.59,4.59,0,0,0-1.89.69,1.46,1.46,0,0,0-.52,1.2q0,1.35,1.55,1.35a3.08,3.08,0,0,0,1.14-.21,2.78,2.78,0,0,0,1.52-1.4,2.3,2.3,0,0,0,.23-1Z"/><path class="cls-2" d="M34.13,16.52V0h3.2V16.52Z"/><path class="cls-2" d="M45.44,8.56h3V12a5.91,5.91,0,0,1-.28,1.83,4.3,4.3,0,0,1-.88,1.55,4.21,4.21,0,0,1-1.52,1.07,5.55,5.55,0,0,1-2.19.39,5.78,5.78,0,0,1-2.26-.39,4.25,4.25,0,0,1-1.53-1.06,4,4,0,0,1-.87-1.55A6.34,6.34,0,0,1,38.58,12V1.16h3.17V4.43H44.7V6.69H41.75v5a3.14,3.14,0,0,0,.43,1.78,1.57,1.57,0,0,0,1.4.63,1.63,1.63,0,0,0,1.4-.62,2.91,2.91,0,0,0,.45-1.75Z"/><path class="cls-2" d="M49.64,3V0h3.2V3Zm0,13.55V4.43h3.2v12.1Z"/><path class="cls-2" d="M65.08,12.15a5.11,5.11,0,0,1-.6,1.92,5.17,5.17,0,0,1-1.22,1.48,5.58,5.58,0,0,1-1.68,1,6,6,0,0,1-2.05.34,6,6,0,0,1-2.25-.41,4.62,4.62,0,0,1-1.76-1.23,5.71,5.71,0,0,1-1.14-2A9,9,0,0,1,54,10.33a8.65,8.65,0,0,1,.41-2.8,5,5,0,0,1,1.14-1.93A4.61,4.61,0,0,1,57.3,4.48a7.47,7.47,0,0,1,4.48,0,5,5,0,0,1,1.7.93,4.47,4.47,0,0,1,1.14,1.48,5.18,5.18,0,0,1,.49,1.92H61.89a2.2,2.2,0,0,0-.75-1.46,2.3,2.3,0,0,0-1.54-.53,2.63,2.63,0,0,0-1,.17,1.88,1.88,0,0,0-.77.58,3,3,0,0,0-.53,1.08,6,6,0,0,0-.2,1.66,5,5,0,0,0,.71,3,2,2,0,0,0,1.65,1,2.52,2.52,0,0,0,1.6-.52,2.06,2.06,0,0,0,.76-1.5Z"/><path class="cls-2" d="M71.9,16.52V.2h7.2A5.51,5.51,0,0,1,81.26.6a4.85,4.85,0,0,1,1.65,1.13A5.06,5.06,0,0,1,84,3.42a5.71,5.71,0,0,1,.37,2.07A5.61,5.61,0,0,1,84,7.54a4.57,4.57,0,0,1-1.06,1.62,4.88,4.88,0,0,1-1.65,1.06,5.8,5.8,0,0,1-2.16.38H75.31v5.93Zm6.66-8.7a2.85,2.85,0,0,0,2.13-.68,2.43,2.43,0,0,0,.65-1.76,2.32,2.32,0,0,0-.65-1.7A2.89,2.89,0,0,0,78.56,3H75.31v4.8Z"/><path class="cls-2" d="M92.55,16.52a5,5,0,0,1-.19-1.08,4,4,0,0,1-1.5,1,5.69,5.69,0,0,1-2.16.38,4.33,4.33,0,0,1-3.06-.92,3.16,3.16,0,0,1-1-2.4,4.4,4.4,0,0,1,.42-2.08,3.12,3.12,0,0,1,1.16-1.22A5.56,5.56,0,0,1,88,9.58q1-.21,2.23-.38a4.3,4.3,0,0,0,1.62-.45,1,1,0,0,0,.42-.92,1,1,0,0,0-.55-.92,2.88,2.88,0,0,0-1.49-.33,2.15,2.15,0,0,0-1.59.49,2.31,2.31,0,0,0-.6,1.3h-3a5.45,5.45,0,0,1,.31-1.72,3.32,3.32,0,0,1,.91-1.35,4.28,4.28,0,0,1,1.63-.87,8.51,8.51,0,0,1,2.45-.31,8,8,0,0,1,2.41.32,3.87,3.87,0,0,1,1.59.92,3.51,3.51,0,0,1,.87,1.5,7,7,0,0,1,.27,2v7.65Zm-.22-5.93a1.73,1.73,0,0,1-.71.39,12.84,12.84,0,0,1-1.35.32,4.58,4.58,0,0,0-1.89.69,1.46,1.46,0,0,0-.52,1.2q0,1.35,1.55,1.35a3.08,3.08,0,0,0,1.14-.21,2.79,2.79,0,0,0,1.52-1.4,2.3,2.3,0,0,0,.23-1Z"/><path class="cls-2" d="M96.8,16.52V4.43h3V5.87a3.91,3.91,0,0,1,.82-1,3.54,3.54,0,0,1,.88-.53,3.36,3.36,0,0,1,.92-.24,9,9,0,0,1,1,0h.42v3.3a5.34,5.34,0,0,0-.89-.07A2.59,2.59,0,0,0,100,10.23v6.29Z"/><path class="cls-2" d="M112,16.52l-2.66-5.43-1.55,1.6v3.84h-3.2V0h3.2V9l4-4.6h3.91l-4.06,4.45,4,7.65Z"/><path class="cls-2" d="M12.27,25.31h-.34l-1.54-3.65q-.32-.75-.64-1.64h0c0,.85.06,1.63.06,2.33v3H9V19.2h1.07l1.44,3.46c.16.39.34.87.54,1.43h0q.33-.92.54-1.43l1.43-3.46h1.07v6.11h-.74v-3c0-.69,0-1.46.06-2.33h0c-.22.62-.44,1.17-.64,1.64Z"/><path class="cls-2" d="M22.17,22.26a3.8,3.8,0,0,1-.2,1.27,2.8,2.8,0,0,1-.57,1,2.58,2.58,0,0,1-.89.66,2.89,2.89,0,0,1-1.17.23,3,3,0,0,1-1.2-.23,2.56,2.56,0,0,1-.9-.66,2.9,2.9,0,0,1-.56-1,3.9,3.9,0,0,1-.2-1.27,3.78,3.78,0,0,1,.2-1.28,2.82,2.82,0,0,1,.57-1,2.66,2.66,0,0,1,.89-.66,3.12,3.12,0,0,1,2.37,0,2.66,2.66,0,0,1,.9.66A2.78,2.78,0,0,1,22,21,3.88,3.88,0,0,1,22.17,22.26Zm-.74,0a3.43,3.43,0,0,0-.16-1.08,2.26,2.26,0,0,0-.45-.78,1.76,1.76,0,0,0-.67-.48,2.15,2.15,0,0,0-1.65,0,1.78,1.78,0,0,0-.67.48,2.28,2.28,0,0,0-.45.78,3.43,3.43,0,0,0-.16,1.08,3.38,3.38,0,0,0,.16,1.09,2.27,2.27,0,0,0,.45.78,1.74,1.74,0,0,0,.67.47,2.1,2.1,0,0,0,.83.16,2,2,0,0,0,.82-.16,1.74,1.74,0,0,0,.66-.47,2.25,2.25,0,0,0,.45-.78A3.44,3.44,0,0,0,21.43,22.26Z"/><path class="cls-2" d="M24.29,19.2v5.44h3v.67H23.54V19.2Z"/><path class="cls-2" d="M33.5,22.26a3.78,3.78,0,0,1-.2,1.27,2.77,2.77,0,0,1-.57,1,2.58,2.58,0,0,1-.89.66,2.9,2.9,0,0,1-1.17.23,3,3,0,0,1-1.2-.23,2.58,2.58,0,0,1-.9-.66,2.86,2.86,0,0,1-.56-1,3.9,3.9,0,0,1-.2-1.27A3.78,3.78,0,0,1,28,21a2.86,2.86,0,0,1,.57-1,2.66,2.66,0,0,1,.89-.66,3.12,3.12,0,0,1,2.37,0,2.68,2.68,0,0,1,.9.66,2.83,2.83,0,0,1,.56,1A3.9,3.9,0,0,1,33.5,22.26Zm-.74,0a3.43,3.43,0,0,0-.16-1.08,2.29,2.29,0,0,0-.45-.78,1.75,1.75,0,0,0-.67-.48,2.15,2.15,0,0,0-1.65,0,1.76,1.76,0,0,0-.67.48,2.31,2.31,0,0,0-.45.78,3.74,3.74,0,0,0,0,2.17,2.3,2.3,0,0,0,.45.78,1.76,1.76,0,0,0,.67.47,2.12,2.12,0,0,0,.84.16,2,2,0,0,0,.82-.16,1.75,1.75,0,0,0,.66-.47,2.28,2.28,0,0,0,.45-.78A3.43,3.43,0,0,0,32.76,22.26Z"/></g></g></svg>